<svg version="1" xmlns="http://www.w3.org/2000/svg" width="933.333" height="933.333" viewBox="0 0 700.000000 700.000000"><path d="M224.4 66.6c-6.6 3.2-7.3 9.6-2.3 19.5 4.5 8.8 5.8 20.8 5.4 50.4-.2 12.6-.5 23.9-.8 25-.3 1.1-.8 4.7-1.2 8-.3 3.3-1.1 8.2-1.6 11-.6 2.7-1.2 6.1-1.5 7.5-.2 1.4-.7 3.8-1.1 5.5-.4 1.6-.8 3.4-.9 4-1.9 9.7-11.1 35.7-17.5 49.3-2.1 4.6-3.9 8.5-3.9 8.7 0 .1-2.4 4.5-5.3 9.7-7.3 12.7-16.5 26.4-25.5 37.8-8.9 11.2-30.6 33.1-41.2 41.6-10.2 8.1-28 20.3-36.5 24.9-3.8 2.1-7.4 4.1-8 4.5-.5.4-4.3 1.2-8.3 1.9-8.4 1.3-11.5 3-13.2 7.2-3.3 7.8 3.2 16.4 11.3 15 .5-.1 3.4-.4 6.5-.7 15.5-1.6 69.8 17.3 94.7 33.1 2.8 1.7 5.7 3.4 6.5 3.7 2.3.9 22.7 15.4 30.5 21.6 7 5.7 30.1 28.3 36.5 35.7 15.4 17.9 31.9 44.6 42.4 68.5 9.8 22.4 19.3 60.3 17.9 71.5-.9 7.7 2.5 12.7 9.4 13.8 3.6.6 8.3-1.5 10.1-4.4.7-1.1 2-5.9 2.8-10.7 1.3-7.1 2.4-10.1 7.2-18.1 35.4-60.3 96.9-106.7 165.2-124.4 12.1-3.2 29.5-6.5 38.3-7.2 3.7-.4 7.8-.8 9-1.1 1.2-.2 10.3-.4 20.2-.5 16.6 0 24.5.3 33.5 1.6 1.9.2 5.9.7 8.9 1.1 3 .3 7.2 1.5 9.3 2.6 2.1 1.1 5.5 2.2 7.6 2.5 3.3.4 4.3.1 7.5-3 3.1-2.8 3.7-4.1 3.7-7.4 0-5.5-2.7-8.6-11.3-12.9-3.9-2-7.5-4.1-8.1-4.7-20.8-22.2-42.1-54.4-52.1-78.7-1.5-3.6-3.3-7.9-4-9.5-5.8-13.2-13.6-41.3-16-58-.4-2.2-.8-5.1-1-6.5-1.5-9.9-2-19.1-2-36.5 0-17.8.5-25.8 2-36 .3-1.7.7-4.7 1-6.7.3-2.1.9-5.7 1.4-8 .6-2.4 1.3-5.9 1.6-7.8.3-1.9 1.1-5.3 1.7-7.5.6-2.2 1.2-4.5 1.3-5 .2-.6 1.4-4.6 2.8-9 7.2-22.8 16.6-43.6 21.6-47.6 4.1-3.4 7.1-9.2 6.5-12.6-.8-4.4-4.2-8.2-7.9-8.9-5-.9-7.7.1-12.6 4.7-12 11.1-62.1 28.9-91.4 32.4-3.2.4-6.8.9-8 1.1-10.7 2.2-49.5 2.1-66.5-.2-7.1-1-25.6-4.4-29-5.4-1.9-.6-4.8-1.3-6.3-1.5-4.5-.9-25.5-8-35.2-12-25.8-10.7-52.1-26.9-73.4-45.3-6-5.2-8.1-7.8-11.8-15-6.7-13.2-11.4-16.3-18.9-12.6zm56.3 73.2c33.5 20.8 82.7 37.6 119.3 40.7 4.1.3 8.3.9 9.4 1.2 4.4 1.3 43.6.5 57.1-1.2 7.7-.9 14.3-1.9 14.6-2 .3-.2 2.8-.7 5.5-1 5.1-.7 31-7.1 32.8-8.2 1.8-1-3.2 4.2-21.1 22.2L481 208.8l-8.2 1.1c-18.9 2.6-23.2 2.9-43.3 2.6-19.5-.2-35.9-1.7-48.5-4.5-24-5.4-41.4-10.9-60-19.2-7.6-3.4-20.3-10-24-12.4-1.9-1.3-3.9-2.4-4.5-2.4-.5 0-4.8-7.5-9.5-16.7-9.4-18.5-11.2-22.3-10.6-22.3.3 0 4 2.2 8.3 4.8zm-11.2 47.6c-5.9 63.3-32.4 121.1-76.4 166.4-3.5 3.6-5.8 4.3-22.5 6.7-2.2.4-7.7 1.3-12.1 2-4.4.8-10 1.7-12.5 2-2.5.3-5.7.8-7.2 1.1-1.6.3-2.8.4-2.8.1 0-.2 2.8-2.6 6.3-5.3 8.5-6.7 31.9-30.1 40.4-40.4 17.9-21.8 34.1-48.7 45.1-75 5-11.9 13.8-40.2 15.5-50 .3-1.4 1.2-6.3 2-11s1.8-10.5 2.1-13c.3-2.5.9-6.8 1.2-9.5.6-4.3.8-7.8 1.3-19 .1-1.1 4.7 6.9 10.2 17.9l10.1 19.9-.7 7.1zm263.7 6.8c-3 11.2-5.6 23.8-6.8 32.8-.3 2.5-.7 5.2-.9 6-2.5 9.5-2.5 58.5-.1 73 .3 1.4.7 4.3 1 6.5 2.2 15.7 7.8 38.8 13.6 55.5 6.4 18.4 20 45.9 30.5 61.9 1.5 2.3 2.6 4.3 2.4 4.5-.2.3-9-4-19.4-9.3-14.2-7.4-19.4-10.6-20.7-12.7-18.9-32.2-31.9-68.4-36.4-101.4-.4-3-.9-6.6-1.1-8-2.8-19.6-1.9-56.8 1.8-75.4.9-4.6 2.1-6 19.2-23.1 10-10.1 18.4-18.2 18.5-18 .2.2-.5 3.6-1.6 7.7zm-217.8 16.2c14.1 6.4 46.7 16.7 60.6 19 1.9.3 4.6.8 6 1.1 1.4.3 4.4.8 6.6 1.1 2.3.2 5.3.7 6.5.9 6.1 1.2 21.2 2 39.7 2 11.1 0 20.2.1 20.2.1 0 1.1-31.4 31.2-32.3 30.9-.7-.2-5-.6-9.7-.9-14.2-1-22.4-2.1-37.5-5.1-10.1-2-34.8-9.6-44.1-13.5-3.8-1.7-4.5-2.7-13.3-19.9-5-9.9-8.9-18.1-8.6-18.1.4 0 3 1.1 5.9 2.4zm-17.5 24.2l9.1 18-2.5 9.6c-6.2 24.4-17.2 50.7-30.2 72.2-6.4 10.6-6.3 10.5-8.9 11-2.3.4-7.7 1.3-12.4 2.1-11.8 2-27.6 4.3-27.8 4-.2-.2 2.1-3.4 5.1-7.2 15.9-19.9 32.9-49.7 41.7-72.8 1.2-3.3 2.6-6.9 3.1-8 2.8-7.3 10.2-33.4 11.5-40.9.6-3.9 1.5-6.9 1.9-6.4.1.2 4.3 8.4 9.4 18.4zM472 256.9c-.8 11.4-.1 36.4 1.5 48.1 2 15 2.5 17.8 5.7 32 3.6 15.8 9.1 33.2 15.5 48.3 2.5 5.9 4.3 11 4.1 11.3-.6.5-33.7-16.3-35.5-18-3.4-3.4-14.1-38.1-17.8-58-2.3-12.6-2.9-17.4-4.1-33.4l-.5-7.3 14.8-14.9c8.1-8.2 15.3-14.9 15.8-15 .6 0 .8 2.6.5 6.9zm-92 25.6c7.4 1.3 15.4 2.6 17.7 2.8 2.4.2 4.5.6 4.8.9.3.3-7.4 8.5-17.1 18.2-9.7 9.7-18 17.3-18.4 16.9-.4-.4-6.2-11.4-12.8-24.4l-12-23.5 12.1 3.3c6.7 1.8 18.3 4.4 25.7 5.8zm-45 24.9c6.9 13.5 12.3 24.7 12 24.9-.3.3-2.7.8-5.5 1.1-2.7.4-5.7.9-6.5 1.1-.8.2-3.3.6-5.5 1-2.2.3-6.5 1-9.5 1.5s-7.1 1.2-9 1.5c-1.9.2-6 .8-9 1.3l-5.6.8 6.2-12c6.1-11.7 14.9-32.7 17.5-41.4.7-2.3 1.5-4.2 1.8-4.2.3 0 6.2 11 13.1 24.4zm86.4-.2c1 10 2.1 15.7 6.1 34.1.8 3.4 3.5 13.3 4.9 18l1.5 4.8-21.2-10.8c-11.7-5.8-23.1-11.7-25.5-13.1l-4.3-2.4 18.3-18.4c10.1-10.1 18.6-18.3 18.9-18.4.3 0 .9 2.8 1.3 6.2zm-70.8 51c-.3 2.4-.8 5.3-1 6.4-.7 3.7-4.8 30.1-6.3 40.1-.3 2.4-.8 4.3-1.2 4.3-.3-.1-3.1-3.3-6.1-7.3-3-4-12.8-14.5-21.7-23.5-14.4-14.4-15.9-16.2-13.5-16.3 1.5 0 3.4-.2 4.2-.4 1.3-.2 10.4-1.7 31.5-5 2.2-.4 6-1 8.5-1.5 2.5-.4 4.9-.8 5.3-.9.5 0 .6 1.8.3 4.1zm48.5 12.7c11.2 5.7 20.5 10.5 20.7 10.6.2.2-4 2.3-9.2 4.8-12.4 5.9-28.9 15.5-38.9 22.4l-7.8 5.6.7-4.4c.4-2.4.8-5.1.9-5.9.1-.8.5-3.5.9-6s1-5.9 1.2-7.5c.3-1.7.9-5.5 1.4-8.5 1.4-8.7 2-12.2 2.6-17.5.3-2.8.8-5.3 1-5.7.6-1 2.2-.3 26.5 12.1zm-114.7 9.5c9.6 8.2 24.3 22.8 31.3 31.1 7.8 9.4 7.9 9.5 15.1 19.5l6.8 9.4-2.2 14.1c-1.3 7.7-2.6 16-2.9 18.4-.3 2.5-.9 4.9-1.2 5.4-.3.5-3.4-3.4-6.9-8.7-22.3-33.9-50.5-62.1-84-84.1-7.1-4.6-13.8-9-14.8-9.8-1.8-1.2-.8-1.6 9.5-3.1 6.3-1 16.1-2.5 21.9-3.5l10.5-1.8 4.4 3.1c2.4 1.7 8 6.2 12.5 10zm-84.9 6.3c51.5 25.8 93.5 67 120 117.6 5.8 10.9 6.2 12.1 5.4 16-.4 2.3-1 6-1.3 8.2-.4 2.2-1.1 6.7-1.6 10s-1.2 7.8-1.5 10c-.6 3.7-2.1 12.7-3.2 18.5-.2 1.3-.5 2.6-.7 2.7-.1.1-1.7-3.9-3.5-9-6.6-18.5-21.9-46.5-35.9-66-32.2-44.8-82.5-83.5-134.1-103.3l-7.4-2.8 3.7-.8c2.1-.5 9.7-1.7 17-2.8 7.2-1.1 14.7-2.3 16.6-2.6 1.9-.3 5.5-.9 8-1.3 4.9-.8 6.9-.2 18.5 5.6zm266.2 18.2c10.7 5.4 19.1 10.1 18.7 10.4-.5.2-5.3 1.7-10.6 3.1-27.1 7.4-59 22.2-83.8 39-7.3 4.9-27.1 20.4-33.9 26.6-3.9 3.5-4.4 3.7-3.7 1.2.3-.9.8-3.5 1.1-5.7.3-2.2 1.2-7.6 2-12s1.7-10.7 2.1-14c.6-5.3 1.1-6.5 4.7-9.9 10.2-9.8 31.9-24.3 51.1-34.1 10.9-5.6 30-14.1 32.4-14.5.2 0 9.1 4.4 19.9 9.9zm77.1 39.3c13.2 6.7 24 12.3 23.9 12.4-.1.1-5.7.5-12.5.9-6.7.3-13 .8-14 1-1 .2-4.5.6-7.7 1-7.7.9-23.8 4-34 6.6-10.3 2.6-32.7 9.9-33.9 11-.6.5-1.6.9-2.3.9-.8 0-5.7 2-11 4.5-5.2 2.5-9.7 4.5-9.9 4.5-1.2 0-22.8 12.5-32.1 18.6-23.6 15.4-44.8 34.1-62.5 55.1-3.9 4.6-7.2 8.3-7.5 8.3-.2 0-.2-.4.1-.8.3-.4.7-2.6 1-4.8.7-5.7 1.6-11.6 2.1-13.9.2-1.1 1.1-6.9 2-12.8 1.8-12.5 1.1-11.3 18.6-28.7 12.7-12.6 18-17.2 31.3-26.8 25.6-18.6 54.7-32.9 85.1-41.7 10.8-3.2 35.3-8.3 37.6-7.9.9.1 12.5 5.8 25.7 12.6z"/></svg>