<svg width="64" height="64" xmlns="http://www.w3.org/2000/svg">
 <defs>
  <linearGradient y2="0" x2="1" y1="0" x1="0" id="svg_8">
   <stop offset="0.496094" stop-color="#d8dddc"/>
   <stop offset="0.632813" stop-color="#272223"/>
  </linearGradient>
 </defs>
 <g>
  <title>background</title>
  <rect fill="none" id="canvas_background" height="402" width="582" y="-1" x="-1"/>
 </g>
 <g>
  <title>Layer 1</title>
  <path id="svg_1" fill="url(#svg_8)" d="m57.998,42.63l-1.17,-0.596c-7.424,-7.793 -9.133,-19.278 -4.255,-28.705l0.678,-0.678c0.39,-0.391 0.39,-1.024 -0.002,-1.414c-0.391,-0.39 -1.023,-0.39 -1.414,0.002l-0.593,0.592l-0.007,-0.014c-9.411,4.931 -20.808,3.391 -28.588,-3.78l-0.788,-1.547c-0.25,-0.492 -0.852,-0.688 -1.345,-0.437c-0.492,0.251 -0.688,0.853 -0.437,1.345l0.576,1.131l-0.036,0.005c1.508,10.548 -3.778,20.802 -13.173,25.723l-1.144,0.183c-0.545,0.086 -0.918,0.599 -0.832,1.144c0.078,0.492 0.503,0.844 0.987,0.844c0.052,0 0.104,-0.004 0.157,-0.013l1.016,-0.161c0.062,0.013 0.122,0.029 0.183,0.042l0.016,0.032c0.013,-0.006 0.024,-0.014 0.037,-0.02c10.738,2.203 18.849,10.58 20.299,21.005l-0.089,0.563c-0.087,0.545 0.285,1.058 0.831,1.144c0.053,0.009 0.105,0.013 0.157,0.013c0.483,0 0.909,-0.352 0.986,-0.844l0.211,-1.334c5.122,-9.43 15.616,-14.553 26.207,-12.748l0.002,-0.012l0.621,0.316c0.146,0.074 0.301,0.109 0.453,0.109c0.364,0 0.716,-0.199 0.892,-0.546c0.252,-0.492 0.056,-1.094 -0.436,-1.344zm-5.498,-2.802l-3.605,-1.837c-3.267,-5.245 -4.474,-11.465 -3.397,-17.585l3.478,-3.478c-2.344,7.725 -1.056,16.133 3.524,22.9zm-18.92,-10.333l-2.303,-4.521c1.833,0.594 3.721,0.985 5.649,1.174l-3.346,3.347zm4.862,-2.034c0.196,1.992 0.605,3.942 1.233,5.833l-4.682,-2.385l3.449,-3.448zm-9.006,-1.696l2.363,4.638l-4.719,0.747c0.983,-1.712 1.774,-3.509 2.356,-5.385zm2.676,6.612l-0.805,5.078c-1.206,-1.584 -2.563,-3.029 -4.083,-4.304l4.888,-0.774zm1.975,0.313l4.34,2.211c-1.832,0.801 -3.558,1.79 -5.161,2.97l0.821,-5.181zm8.247,1.958c-1.235,-2.875 -1.911,-5.919 -2.012,-9.067l2.868,-2.869c-0.362,4.719 0.511,9.414 2.535,13.665l-3.391,-1.729zm-3.526,-10.38c-3.076,-0.097 -6.054,-0.742 -8.869,-1.921l-1.722,-3.379c3.562,1.657 7.428,2.516 11.355,2.516c0.703,0 1.409,-0.041 2.115,-0.096l-2.879,2.88zm-12.474,-4.592l1.735,3.406c-0.662,3.033 -1.87,5.88 -3.597,8.48l-3.964,0.628c3.005,-3.61 5.005,-7.908 5.826,-12.514zm-1.847,13.909c2.522,1.822 4.67,4.062 6.373,6.697l-0.573,3.622c-2.418,-4.052 -5.829,-7.364 -9.914,-9.668l4.114,-0.651zm8.313,7.229c2.354,-2.06 5.038,-3.64 7.996,-4.705l3.613,1.841c-4.597,1.111 -8.789,3.388 -12.204,6.619l0.595,-3.755zm6.802,-24.124c2.682,0 5.378,-0.401 7.996,-1.214l-3.612,3.613c-6.04,1.064 -12.169,-0.098 -17.366,-3.258l-1.816,-3.565c4.444,2.916 9.594,4.424 14.798,4.424zm-16.748,-3.842l1.853,3.636c-0.383,6.139 -3.004,11.865 -7.385,16.211l-4.975,0.787c6.417,-4.943 10.288,-12.507 10.507,-20.634zm-10.486,22.656l4.61,-0.73c5.64,2.424 10.168,6.801 12.791,12.402l-0.794,5.016c-2.627,-7.671 -8.715,-13.815 -16.607,-16.688zm18.647,16.584l0.635,-4.008c3.977,-4.717 9.515,-7.782 15.667,-8.648l4.584,2.336c-8.167,0.102 -15.84,3.892 -20.886,10.32z"/>
 </g>
</svg>